<svg width="34" height="34" viewBox="0 0 34 34" fill="none" xmlns="http://www.w3.org/2000/svg">
<path d="M17 31.1607C24.824 31.1607 31.1666 24.8181 31.1666 16.9941C31.1666 9.17003 24.824 2.82739 17 2.82739C9.17595 2.82739 2.83331 9.17003 2.83331 16.9941C2.83331 24.8181 9.17595 31.1607 17 31.1607Z" fill="#1E8DED"/>
<path d="M15.5834 21.9525C15.3969 21.9536 15.2121 21.9178 15.0395 21.8473C14.8669 21.7768 14.7099 21.673 14.5775 21.5417L10.3275 17.2917C10.1954 17.1596 10.0907 17.0028 10.0192 16.8302C9.94768 16.6576 9.91089 16.4726 9.91089 16.2858C9.91089 15.9086 10.0608 15.5468 10.3275 15.28C10.5943 15.0132 10.9561 14.8634 11.3334 14.8634C11.7106 14.8634 12.0724 15.0132 12.3392 15.28L15.5834 18.5383L21.6609 12.4467C21.9276 12.1799 22.2894 12.03 22.6667 12.03C23.0439 12.03 23.4058 12.1799 23.6725 12.4467C23.9393 12.7134 24.0892 13.0752 24.0892 13.4525C24.0892 13.8298 23.9393 14.1916 23.6725 14.4583L16.5892 21.5417C16.4568 21.673 16.2998 21.7768 16.1272 21.8473C15.9546 21.9178 15.7698 21.9536 15.5834 21.9525Z" fill="white"/>
</svg>
