<svg width="16" height="11" viewBox="0 0 16 11" fill="none" xmlns="http://www.w3.org/2000/svg">
<path d="M1.6875 7.03125C1.6875 4.44375 2.98125 1.74375 4.5 1.74375C5.34375 1.74375 6.01875 2.25 7.0875 3.76875C6.075 5.34375 5.45625 6.3 5.45625 6.3C4.10625 8.4375 3.65625 8.8875 2.925 8.8875C2.19375 8.94375 1.6875 8.26875 1.6875 7.03125ZM10.5187 6.075L9.5625 4.5C9.3375 4.10625 9.05625 3.7125 8.83125 3.375C9.675 2.08125 10.35 1.40625 11.1937 1.40625C12.8812 1.40625 14.2312 3.9375 14.2312 7.0875C14.2312 8.26875 13.8375 8.94375 13.05 8.94375C12.2625 8.94375 11.9812 8.4375 10.5187 6.075ZM8.1 2.25C6.8625 0.61875 5.79375 0 4.55625 0C1.96875 0 0 3.43125 0 7.03125C0 9.28125 1.06875 10.6875 2.86875 10.6875C4.1625 10.6875 5.0625 10.0688 6.75 7.14375C6.75 7.14375 7.425 5.90625 7.93125 5.0625C8.1 5.34375 8.26875 5.625 8.4375 5.9625L9.225 7.3125C10.7437 9.9 11.5875 10.7437 13.1062 10.7437C14.85 10.7437 15.8062 9.28125 15.8062 6.975C15.75 3.15 13.725 0 11.3062 0C10.0125 0 9 1.0125 8.1 2.25Z" fill="#2F80FA"/>
</svg>
